<mxfile host="65bd71144e">
    <diagram id="Nf_M2WfFq3NIZpQMSy-8" name="Page-1">
        <mxGraphModel dx="1148" dy="790" grid="1" gridSize="10" guides="1" tooltips="1" connect="1" arrows="1" fold="1" page="1" pageScale="1" pageWidth="827" pageHeight="1169" math="0" shadow="0">
            <root>
                <mxCell id="0"/>
                <mxCell id="1" parent="0"/>
                <mxCell id="4" style="edgeStyle=none;html=1;exitX=0.5;exitY=1;exitDx=0;exitDy=0;fontSize=27;fillColor=#1ba1e2;strokeColor=#006EAF;strokeWidth=5;" parent="1" source="2" edge="1">
                    <mxGeometry relative="1" as="geometry">
                        <mxPoint x="190" y="170" as="targetPoint"/>
                    </mxGeometry>
                </mxCell>
                <mxCell id="2" value="&lt;font style=&quot;font-size: 27px&quot;&gt;Start&lt;/font&gt;" style="rounded=1;whiteSpace=wrap;html=1;fillColor=#008a00;fontColor=#ffffff;strokeColor=#005700;" parent="1" vertex="1">
                    <mxGeometry x="130" y="50" width="120" height="60" as="geometry"/>
                </mxCell>
                <mxCell id="8" value="" style="edgeStyle=none;html=1;fontSize=27;fontColor=#000000;strokeWidth=5;fillColor=#1ba1e2;strokeColor=#006EAF;" parent="1" source="5" target="7" edge="1">
                    <mxGeometry relative="1" as="geometry"/>
                </mxCell>
                <mxCell id="5" value="&lt;font color=&quot;#000000&quot;&gt;a = 1; b = 5;&lt;br&gt;c = 3; d = 9&lt;br&gt;e = 7; Xmin&amp;nbsp; = 0;&lt;/font&gt;" style="shape=parallelogram;perimeter=parallelogramPerimeter;whiteSpace=wrap;html=1;fixedSize=1;fontSize=27;fillColor=#fad7ac;strokeColor=#b46504;" parent="1" vertex="1">
                    <mxGeometry x="80" y="170" width="230" height="100" as="geometry"/>
                </mxCell>
                <mxCell id="10" value="" style="edgeStyle=none;html=1;fontSize=27;fontColor=#000000;strokeWidth=5;fillColor=#1ba1e2;strokeColor=#006EAF;" parent="1" source="7" target="9" edge="1">
                    <mxGeometry relative="1" as="geometry"/>
                </mxCell>
                <mxCell id="11" value="ДА" style="edgeLabel;html=1;align=center;verticalAlign=middle;resizable=0;points=[];fontSize=20;fontColor=#00FF00;" parent="10" vertex="1" connectable="0">
                    <mxGeometry x="-0.3829" y="2" relative="1" as="geometry">
                        <mxPoint as="offset"/>
                    </mxGeometry>
                </mxCell>
                <mxCell id="13" value="&lt;font color=&quot;#ff0000&quot; style=&quot;font-size: 20px&quot;&gt;Нет&lt;/font&gt;" style="edgeStyle=none;html=1;fontSize=27;fontColor=#00FF00;strokeWidth=5;fillColor=#1ba1e2;strokeColor=#006EAF;" parent="1" source="7" target="12" edge="1">
                    <mxGeometry x="-0.1958" relative="1" as="geometry">
                        <Array as="points">
                            <mxPoint x="198" y="490"/>
                        </Array>
                        <mxPoint as="offset"/>
                    </mxGeometry>
                </mxCell>
                <mxCell id="7" value="&lt;font color=&quot;#000000&quot; style=&quot;font-size: 20px&quot;&gt;a&amp;gt;b?&lt;/font&gt;" style="rhombus;whiteSpace=wrap;html=1;fontSize=27;fillColor=#fad7ac;strokeColor=#b46504;" parent="1" vertex="1">
                    <mxGeometry x="130" y="330" width="135" height="120" as="geometry"/>
                </mxCell>
                <mxCell id="16" style="edgeStyle=none;html=1;exitX=0.5;exitY=1;exitDx=0;exitDy=0;entryX=0.5;entryY=0;entryDx=0;entryDy=0;fontSize=27;fontColor=#000000;strokeWidth=5;fillColor=#1ba1e2;strokeColor=#006EAF;" parent="1" source="9" target="14" edge="1">
                    <mxGeometry relative="1" as="geometry"/>
                </mxCell>
                <mxCell id="9" value="&lt;font color=&quot;#000000&quot; style=&quot;font-size: 21px&quot;&gt;Xmin = b;&lt;/font&gt;" style="whiteSpace=wrap;html=1;fontSize=27;fillColor=#fad7ac;strokeColor=#b46504;" parent="1" vertex="1">
                    <mxGeometry x="337.5" y="360" width="120" height="60" as="geometry"/>
                </mxCell>
                <mxCell id="15" value="" style="edgeStyle=none;html=1;fontSize=27;fontColor=#000000;strokeWidth=5;fillColor=#1ba1e2;strokeColor=#006EAF;" parent="1" source="12" target="14" edge="1">
                    <mxGeometry relative="1" as="geometry"/>
                </mxCell>
                <mxCell id="12" value="&lt;font color=&quot;#000000&quot; style=&quot;font-size: 20px&quot;&gt;Xmin=a;&lt;/font&gt;" style="whiteSpace=wrap;html=1;fontSize=27;fillColor=#fad7ac;strokeColor=#b46504;" parent="1" vertex="1">
                    <mxGeometry x="137.5" y="525" width="120" height="60" as="geometry"/>
                </mxCell>
                <mxCell id="18" value="&lt;font color=&quot;#ff0000&quot;&gt;Нет&lt;/font&gt;" style="edgeStyle=none;html=1;fontSize=20;fontColor=#000000;strokeWidth=5;fillColor=#1ba1e2;strokeColor=#006EAF;" parent="1" source="14" target="17" edge="1">
                    <mxGeometry x="-0.3333" relative="1" as="geometry">
                        <mxPoint as="offset"/>
                    </mxGeometry>
                </mxCell>
                <mxCell id="20" value="&lt;font color=&quot;#00ff00&quot;&gt;Да&lt;/font&gt;" style="edgeStyle=none;html=1;fontSize=20;fontColor=#FF0000;strokeWidth=5;fillColor=#1ba1e2;strokeColor=#006EAF;entryX=0.5;entryY=0;entryDx=0;entryDy=0;" parent="1" source="14" target="21" edge="1">
                    <mxGeometry x="-0.0127" relative="1" as="geometry">
                        <mxPoint x="520" y="555" as="targetPoint"/>
                        <Array as="points">
                            <mxPoint x="555" y="555"/>
                        </Array>
                        <mxPoint as="offset"/>
                    </mxGeometry>
                </mxCell>
                <mxCell id="14" value="&lt;font color=&quot;#000000&quot; style=&quot;font-size: 20px&quot;&gt;c&amp;gt;Xmin?&lt;/font&gt;" style="rhombus;whiteSpace=wrap;html=1;fontSize=27;fillColor=#fad7ac;strokeColor=#b46504;" parent="1" vertex="1">
                    <mxGeometry x="337.5" y="495" width="120" height="120" as="geometry"/>
                </mxCell>
                <mxCell id="22" value="" style="edgeStyle=none;html=1;fontSize=20;fontColor=#000000;strokeWidth=5;fillColor=#1ba1e2;strokeColor=#006EAF;" parent="1" source="17" target="21" edge="1">
                    <mxGeometry relative="1" as="geometry"/>
                </mxCell>
                <mxCell id="17" value="&lt;font color=&quot;#000000&quot;&gt;Xmin=c;&lt;/font&gt;" style="whiteSpace=wrap;html=1;fontSize=27;fillColor=#fad7ac;strokeColor=#b46504;" parent="1" vertex="1">
                    <mxGeometry x="337.5" y="680" width="120" height="60" as="geometry"/>
                </mxCell>
                <mxCell id="24" value="" style="edgeStyle=none;html=1;fontSize=20;fontColor=#000000;strokeWidth=5;fillColor=#1ba1e2;strokeColor=#006EAF;" parent="1" source="21" target="23" edge="1">
                    <mxGeometry relative="1" as="geometry"/>
                </mxCell>
                <mxCell id="27" value="&lt;font color=&quot;#ff0000&quot;&gt;Нет&lt;/font&gt;" style="edgeLabel;html=1;align=center;verticalAlign=middle;resizable=0;points=[];fontSize=20;fontColor=#000000;" parent="24" vertex="1" connectable="0">
                    <mxGeometry x="-0.3215" y="1" relative="1" as="geometry">
                        <mxPoint as="offset"/>
                    </mxGeometry>
                </mxCell>
                <mxCell id="26" value="" style="edgeStyle=none;html=1;fontSize=20;fontColor=#000000;strokeWidth=5;fillColor=#1ba1e2;strokeColor=#006EAF;entryX=0.437;entryY=0;entryDx=0;entryDy=0;entryPerimeter=0;" parent="1" source="21" target="37" edge="1">
                    <mxGeometry relative="1" as="geometry">
                        <mxPoint x="712.5" y="825" as="targetPoint"/>
                        <Array as="points">
                            <mxPoint x="713" y="710"/>
                        </Array>
                    </mxGeometry>
                </mxCell>
                <mxCell id="28" value="&lt;font color=&quot;#00ff00&quot;&gt;Да&lt;/font&gt;" style="edgeLabel;html=1;align=center;verticalAlign=middle;resizable=0;points=[];fontSize=20;fontColor=#FF0000;" parent="26" vertex="1" connectable="0">
                    <mxGeometry x="-0.4757" y="-2" relative="1" as="geometry">
                        <mxPoint x="43" y="-2" as="offset"/>
                    </mxGeometry>
                </mxCell>
                <mxCell id="21" value="&lt;font color=&quot;#000000&quot; style=&quot;font-size: 20px&quot;&gt;d&amp;gt;Xmin?&lt;/font&gt;" style="rhombus;whiteSpace=wrap;html=1;fontSize=27;fillColor=#fad7ac;strokeColor=#b46504;" parent="1" vertex="1">
                    <mxGeometry x="500" y="655" width="110" height="110" as="geometry"/>
                </mxCell>
                <mxCell id="30" value="" style="edgeStyle=none;html=1;fontSize=20;fontColor=#00FF00;strokeWidth=5;fillColor=#1ba1e2;strokeColor=#006EAF;entryX=-0.021;entryY=0.4;entryDx=0;entryDy=0;entryPerimeter=0;" parent="1" source="23" target="37" edge="1">
                    <mxGeometry relative="1" as="geometry">
                        <mxPoint x="660" y="880" as="targetPoint"/>
                    </mxGeometry>
                </mxCell>
                <mxCell id="23" value="&lt;font color=&quot;#000000&quot;&gt;Xmin=d;&lt;/font&gt;" style="whiteSpace=wrap;html=1;fontSize=27;fillColor=#fad7ac;strokeColor=#b46504;" parent="1" vertex="1">
                    <mxGeometry x="495" y="850" width="120" height="60" as="geometry"/>
                </mxCell>
                <mxCell id="37" value="Минимальное число: Xmin" style="shape=document;whiteSpace=wrap;html=1;boundedLbl=1;fontSize=20;fillColor=#60a917;strokeColor=#2D7600;fontColor=#ffffff;" parent="1" vertex="1">
                    <mxGeometry x="650" y="850" width="143" height="80" as="geometry"/>
                </mxCell>
            </root>
        </mxGraphModel>
    </diagram>
</mxfile>